# File created by Blade
# Date/Time:  Wed Apr 08 17:04:14 2015
#---------------------------------------------------------
:version 1.10
:name HOM
:units
  mass 1.0
  length 1.000000
  angle deg
:documentation
     Acclaim Skeleton File
:root
   axis xyz
   order TX TY TZ RX RY RZ
   position 0.000000 0.000000 0.000000
   orientation 0 0 0
:bonedata
   begin
      id 1
      name Spine_dum
      direction 0.000000 1.000000 0.000000
      length 5.893853
      axis 0.0 0.0 0.0 xyz
   end
   begin
      id 2
      name LeftUpLeg_dum
      direction 1.000000 0.000000 0.000000
      length 3.697939
      axis 0.0 0.0 0.0 xyz
   end
   begin
      id 3
      name RightUpLeg_dum
      direction -1.000000 0.000000 0.000000
      length 3.697939
      axis 0.0 0.0 0.0 xyz
   end
   begin
      id 4
      name Spine
      direction 0.000000 1.000000 0.000000
      length 0.000000
      axis 0.0 0.0 0.0 xyz
      dof rx ry rz
   end
   begin
      id 5
      name Spine_dum1
      direction 0.000000 1.000000 0.000000
      length 16.447146
      axis 0.0 0.0 0.0 xyz
   end
   begin
      id 6
      name Spine_dum2
      direction 0.000000 1.000000 0.000000
      length 10.900383
      axis 0.0 0.0 0.0 xyz
   end
   begin
      id 7
      name Spine_dum3
      direction 0.000000 1.000000 0.000000
      length 10.900383
      axis 0.0 0.0 0.0 xyz
   end
   begin
      id 8
      name Head
      direction 0.000000 1.000000 0.000000
      length 4.527550
      axis 0.0 0.0 0.0 xyz
      dof rx ry rz
   end
   begin
      id 9
      name LeftShoulder
      direction 1.000000 0.000000 0.000000
      length 8.219464
      axis 0.0 0.0 -90.0 xyz
      dof rx ry rz
   end
   begin
      id 10
      name LeftArm
      direction 1.000000 0.000000 0.000000
      length 11.094937
      axis 0.0 0.0 -90.0 xyz
      dof rx ry rz
   end
   begin
      id 11
      name LeftForeArm
      direction 1.000000 0.000000 0.000000
      length 9.103875
      axis 0.0 0.0 -90.0 xyz
      dof ry rz rx
   end
   begin
      id 12
      name LeftHand
      direction 0.000000 0.000000 0.000000
      length 0.000000
      axis 0.0 0.0 -90.0 xyz
      dof rx ry rz
   end
   begin
      id 13
      name LeftHand_dum1
      direction 0.000000 0.000000 0.000000
      length 0.000000
      axis 0.0 0.0 -90.0 xyz
   end
   begin
      id 14
      name LeftHand_dum2
      direction 1.000000 0.000000 0.000000
      length 3.937000
      axis 0.0 0.0 -90.0 xyz
   end
   begin
      id 15
      name LeftHandThumb1
      direction 0.000000 0.000000 1.000000
      length 3.937000
      axis 0.0 0.0 -90.0 xyz
      dof rx rz ry
   end
   begin
      id 16
      name RightShoulder
      direction -1.000000 0.000000 0.000000
      length 8.219464
      axis 0.0 0.0 90.0 xyz
      dof rx ry rz
   end
   begin
      id 17
      name RightArm
      direction -1.000000 0.000000 0.000000
      length 11.094937
      axis 0.0 0.0 90.0 xyz
      dof rx ry rz
   end
   begin
      id 18
      name RightForeArm
      direction -1.000000 0.000000 0.000000
      length 9.103875
      axis 0.0 0.0 90.0 xyz
      dof ry rz rx
   end
   begin
      id 19
      name RightHand
      direction 0.000000 0.000000 0.000000
      length 0.000000
      axis 0.0 0.0 90.0 xyz
      dof rx ry rz
   end
   begin
      id 20
      name RightHand_dum1
      direction 0.000000 0.000000 0.000000
      length 0.000000
      axis 0.0 0.0 90.0 xyz
   end
   begin
      id 21
      name RightHand_dum2
      direction -1.000000 0.000000 0.000000
      length 3.937000
      axis 0.0 0.0 90.0 xyz
   end
   begin
      id 22
      name RightHandThumb1
      direction 0.000000 0.000000 1.000000
      length 3.937000
      axis 0.0 0.0 90.0 xyz
      dof rx rz ry
   end
   begin
      id 23
      name LeftUpLeg
      direction 0.000000 -1.000000 0.000000
      length 16.181467
      axis 0.0 0.0 0.0 xyz
      dof rx ry rz
   end
   begin
      id 24
      name LeftLeg
      direction 0.000000 -1.000000 0.000000
      length 16.501392
      axis 0.0 0.0 0.0 xyz
      dof rx ry rz
   end
   begin
      id 25
      name LeftFoot
      direction 0.000000 -0.258819 0.965926
      length 6.408245
      axis 15.0 0.0 0.0 xyz
      dof rx ry rz
   end
   begin
      id 26
      name LeftToeBase
      direction 0.000000 0.000000 1.000000
      length 2.952750
      axis 0.0 0.0 0.0 xyz
      dof rx ry rz
   end
   begin
      id 27
      name RightUpLeg
      direction 0.000000 -1.000000 0.000000
      length 16.181467
      axis 0.0 0.0 0.0 xyz
      dof rx ry rz
   end
   begin
      id 28
      name RightLeg
      direction 0.000000 -1.000000 0.000000
      length 16.501392
      axis 0.0 0.0 0.0 xyz
      dof rx ry rz
   end
   begin
      id 29
      name RightFoot
      direction 0.000000 -0.258819 0.965926
      length 6.408245
      axis 15.0 0.0 0.0 xyz
      dof rx ry rz
   end
   begin
      id 30
      name RightToeBase
      direction 0.000000 0.000000 1.000000
      length 2.952750
      axis 0.0 0.0 0.0 xyz
      dof rx ry rz
   end
:hierarchy
   begin
      root Spine_dum LeftUpLeg_dum RightUpLeg_dum
      Spine_dum Spine
      LeftUpLeg_dum LeftUpLeg
      RightUpLeg_dum RightUpLeg
      Spine Spine_dum1 Spine_dum2 Spine_dum3
      Spine_dum1 Head
      Spine_dum2 LeftShoulder
      Spine_dum3 RightShoulder
      LeftShoulder LeftArm
      LeftArm LeftForeArm
      LeftForeArm LeftHand
      LeftHand LeftHand_dum1 LeftHand_dum2
      LeftHand_dum1 LeftHandThumb1
      RightShoulder RightArm
      RightArm RightForeArm
      RightForeArm RightHand
      RightHand RightHand_dum1 RightHand_dum2
      RightHand_dum1 RightHandThumb1
      LeftUpLeg LeftLeg
      LeftLeg LeftFoot
      LeftFoot LeftToeBase
      RightUpLeg RightLeg
      RightLeg RightFoot
      RightFoot RightToeBase
   end

# File created by Blade
# Date/Time:  Wed Apr 08 17:04:22 2015
# Frame Rate: 120.000 fps
#------------------------------------------------------
:FULLY-SPECIFIED
:DEGREES
63
root 4.614018 36.146885 3.324536 -144.462974 -83.385940 168.618296
Spine -22.940103 -5.265190 -6.579260
Head 8.696952 -8.675136 6.749871
LeftShoulder -1.426199 13.824587 28.398015
LeftArm 55.835079 31.041378 -45.813100
LeftForeArm 29.291869 0.000000 99.177252
LeftHand -12.648142 -0.000000 -5.182956
LeftHandThumb1 -26.253704 0.000000 33.147579
RightShoulder -27.308882 -50.630358 -5.201097
RightArm 51.366178 15.112390 43.448977
RightForeArm 7.736711 0.000000 35.411345
RightHand -1.369060 -0.000000 13.935002
RightHandThumb1 -24.326973 -0.000000 -32.862282
LeftUpLeg -27.129402 10.509795 -1.517957
LeftLeg 14.619056 -0.000000 -0.000000
LeftFoot -13.179898 10.194986 -13.735805
LeftToeBase 8.747757 -0.000000 -0.000000
RightUpLeg -29.156199 -3.553574 -8.661869
RightLeg 13.265509 -0.000000 -0.000000
RightFoot -10.305882 -1.199015 19.113378
RightToeBase 12.850390 -0.000000 -0.000000
64
root 4.617998 36.143524 3.350417 -145.107667 -83.041573 169.176331
Spine -22.830102 -5.368285 -6.617127
Head 8.526665 -8.593668 6.745490
LeftShoulder -0.927994 13.229858 28.629618
LeftArm 57.860201 32.333967 -45.383037
LeftForeArm 29.542745 -0.000000 99.268856
LeftHand -12.579006 -0.000000 -5.047082
LeftHandThumb1 -26.253704 0.000000 33.147579
RightShoulder -27.212805 -50.700882 -5.247070
RightArm 51.608196 13.699753 41.853689
RightForeArm 7.626229 -0.000000 36.013930
RightHand -1.355458 -0.000000 13.972101
RightHandThumb1 -24.326973 -0.000000 -32.862282
LeftUpLeg -26.991486 10.692363 -1.640286
LeftLeg 14.590589 -0.000000 -0.000000
LeftFoot -13.265331 10.325789 -13.714150
LeftToeBase 8.768609 -0.000000 -0.000000
RightUpLeg -29.208058 -3.420237 -8.780282
RightLeg 13.338433 -0.000000 -0.000000
RightFoot -10.209559 -1.013471 19.115081
RightToeBase 12.860327 -0.000000 -0.000000
65
root 4.627621 36.142145 3.361560 -145.464539 -82.894993 169.492610
Spine -22.774409 -5.656380 -6.600184
Head 8.439097 -8.540008 6.802651
LeftShoulder -0.350807 12.648720 28.927834
LeftArm 59.868210 33.540706 -45.126858
LeftForeArm 30.192289 -0.000000 99.236516
LeftHand -12.433399 -0.000000 -5.477082
LeftHandThumb1 -26.253704 0.000000 33.147579
RightShoulder -27.072344 -50.808908 -5.313934
RightArm 51.888531 12.233327 40.151159
RightForeArm 7.670498 0.000000 36.541049
RightHand -1.167679 -0.000000 13.811126
RightHandThumb1 -24.326973 -0.000000 -32.862282
LeftUpLeg -26.962492 10.747748 -1.669295
LeftLeg 14.622559 -0.000000 -0.000000
LeftFoot -13.317670 10.388438 -13.734199
LeftToeBase 8.797574 -0.000000 -0.000000
RightUpLeg -29.239941 -3.411529 -8.792175
RightLeg 13.361958 -0.000000 -0.000000
RightFoot -10.134846 -0.913917 19.070787
RightToeBase 12.849369 -0.000000 -0.000000
66
root 4.634301 36.140458 3.377016 -145.882648 -82.669952 169.881002
Spine -22.734874 -5.908550 -6.567275
Head 8.326783 -8.432430 6.777512
LeftShoulder 0.132646 12.134639 29.045859
LeftArm 62.023437 34.573112 -44.536769
LeftForeArm 30.549774 -0.000000 99.263539
LeftHand -12.405445 -0.000000 -5.619513
LeftHandThumb1 -26.253704 0.000000 33.147579
RightShoulder -26.864694 -50.857916 -5.499001
RightArm 52.227372 10.768671 38.459930
RightForeArm 7.648807 -0.000000 37.081537
RightHand -0.956475 -0.000000 13.931516
RightHandThumb1 -24.326973 -0.000000 -32.862282
LeftUpLeg -26.914896 10.870197 -1.741173
LeftLeg 14.619809 -0.000000 -0.000000
LeftFoot -13.370015 10.460375 -13.731416
LeftToeBase 8.797988 -0.000000 -0.000000
RightUpLeg -29.298700 -3.335803 -8.846543
RightLeg 13.388533 -0.000000 -0.000000
RightFoot -10.054150 -0.804755 19.027272
RightToeBase 12.844636 -0.000000 -0.000000
67
root 4.644678 36.137865 3.393182 -146.223793 -82.467376 170.198886
Spine -22.687463 -6.272071 -6.483747
Head 8.208256 -8.221145 6.738627
LeftShoulder 0.546099 11.573637 29.197456
LeftArm 64.117300 35.452738 -44.018553
LeftForeArm 30.981170 0.000000 99.133053
LeftHand -11.842434 -0.000000 -6.084528
LeftHandThumb1 -26.253704 0.000000 33.147579
RightShoulder -26.457573 -50.877630 -5.862873
RightArm 52.563078 9.273789 36.754242
RightForeArm 7.409073 -0.000000 37.717055
RightHand -0.926515 -0.000000 13.917169
RightHandThumb1 -24.326973 -0.000000 -32.862282
LeftUpLeg -26.885262 10.933462 -1.796282
LeftLeg 14.628354 -0.000000 -0.000000
LeftFoot -13.430172 10.564306 -13.757698
LeftToeBase 8.783823 -0.000000 -0.000000
RightUpLeg -29.365494 -3.275863 -8.898623
RightLeg 13.419606 -0.000000 -0.000000
RightFoot -9.977577 -0.690983 19.008013
RightToeBase 12.850816 -0.000000 -0.000000
68
root 4.652606 36.137243 3.407117 -146.390589 -82.308493 170.371948
Spine -22.670660 -6.563513 -6.460087
Head 8.072780 -8.155914 6.745414
LeftShoulder 1.086460 10.948535 29.449671
LeftArm 66.287824 36.399877 -43.471463
LeftForeArm 31.098075 0.000000 98.917826
LeftHand -11.727733 -0.000000 -5.905967
LeftHandThumb1 -26.253704 0.000000 33.147579
RightShoulder -26.264523 -50.915211 -6.012540
RightArm 52.901942 7.810039 34.904984
RightForeArm 7.242927 -0.000000 38.398405
RightHand -0.909234 0.000000 13.807685
RightHandThumb1 -24.326973 -0.000000 -32.862282
LeftUpLeg -26.881525 10.960160 -1.847284
LeftLeg 14.624782 -0.000000 -0.000000
LeftFoot -13.472382 10.667892 -13.780552
LeftToeBase 8.802240 -0.000000 -0.000000
RightUpLeg -29.432404 -3.265282 -8.935271
RightLeg 13.425250 -0.000000 -0.000000
RightFoot -9.899061 -0.587332 18.979178
RightToeBase 12.840212 -0.000000 -0.000000
69
root 4.660434 36.135858 3.421716 -146.624792 -82.119836 170.607094
Spine -22.655828 -6.898451 -6.398041
Head 7.967177 -7.983658 6.702724
LeftShoulder 1.614042 10.293009 29.664349
LeftArm 68.379075 37.266677 -42.868910
LeftForeArm 31.244769 -0.000000 98.709343
LeftHand -11.870323 -0.000000 -5.512580
LeftHandThumb1 -26.253704 0.000000 33.147579
RightShoulder -25.911888 -50.960231 -6.329671
RightArm 53.325458 6.467446 33.256907
RightForeArm 6.604739 0.000000 39.062571
RightHand -0.683821 -0.000000 14.039094
RightHandThumb1 -24.326973 -0.000000 -32.862282
LeftUpLeg -26.860416 10.999653 -1.901079
LeftLeg 14.608656 -0.000000 -0.000000
LeftFoot -13.535919 10.794253 -13.801129
LeftToeBase 8.821893 -0.000000 -0.000000
RightUpLeg -29.495590 -3.210627 -8.985967
RightLeg 13.417855 -0.000000 -0.000000
RightFoot -9.824000 -0.498146 18.936054
RightToeBase 12.843662 -0.000000 -0.000000
70
root 4.667852 36.134318 3.436549 -146.828187 -81.878305 170.824991
Spine -22.657028 -7.249483 -6.326984
Head 7.843612 -7.740515 6.613942
LeftShoulder 2.072395 9.703332 29.748953
LeftArm 70.463846 37.934250 -42.255744
LeftForeArm 31.214077 -0.000000 98.511890
LeftHand -11.963191 -0.000000 -5.582501
LeftHandThumb1 -26.253704 0.000000 33.147579
RightShoulder -25.534999 -51.012528 -6.713037
RightArm 53.899543 5.169987 31.648063
RightForeArm 5.992213 -0.000000 39.718887
RightHand -0.565914 -0.000000 14.251470
RightHandThumb1 -24.326973 -0.000000 -32.862282
LeftUpLeg -26.858498 11.134070 -2.001630
LeftLeg 14.606812 -0.000000 -0.000000
LeftFoot -13.580173 10.838796 -13.827049
LeftToeBase 8.822873 -0.000000 -0.000000
RightUpLeg -29.595155 -3.129950 -9.061224
RightLeg 13.433022 -0.000000 -0.000000
RightFoot -9.747491 -0.389672 18.911283
RightToeBase 12.839907 -0.000000 -0.000000
71
root 4.673431 36.132838 3.452918 -147.042760 -81.617561 171.043917
Spine -22.647159 -7.527639 -6.298822
Head 7.708026 -7.560874 6.571224
LeftShoulder 2.627240 9.028700 29.951062
LeftArm 72.458692 38.605225 -41.732063
LeftForeArm 31.120292 0.000000 98.162906
LeftHand -11.884072 -0.000000 -5.152930
LeftHandThumb1 -26.253704 0.000000 33.147579
RightShoulder -25.250764 -51.053121 -6.997399
RightArm 54.506923 3.926797 29.969647
RightForeArm 5.307677 -0.000000 40.348969
RightHand -0.512546 -0.000000 14.257315
RightHandThumb1 -24.326973 -0.000000 -32.862282
LeftUpLeg -26.822524 11.252828 -2.100175
LeftLeg 14.569407 -0.000000 -0.000000
LeftFoot -13.624462 10.927821 -13.853856
LeftToeBase 8.818821 -0.000000 -0.000000
RightUpLeg -29.686182 -3.042573 -9.145901
RightLeg 13.447666 -0.000000 -0.000000
RightFoot -9.664029 -0.254908 18.893226
RightToeBase 12.841234 -0.000000 -0.000000
